<svg width="18" height="18" viewBox="0 0 18 18" fill="none" xmlns="http://www.w3.org/2000/svg">
<g clip-path="url(#clip0_1641_10543)">
<path d="M10.95 5.99999H15.75C16.1478 5.99999 16.5294 6.15802 16.8107 6.43933C17.092 6.72063 17.25 7.10216 17.25 7.49999V9.07799C17.2502 9.27401 17.212 9.46817 17.1375 9.64949L14.8162 15.2857C14.7596 15.4232 14.6634 15.5406 14.5399 15.6233C14.4164 15.706 14.2711 15.7501 14.1225 15.75H1.5C1.30109 15.75 1.11032 15.671 0.96967 15.5303C0.829018 15.3897 0.75 15.1989 0.75 15V7.49999C0.75 7.30108 0.829018 7.11031 0.96967 6.96966C1.11032 6.82901 1.30109 6.74999 1.5 6.74999H4.1115C4.23157 6.75002 4.3499 6.72122 4.45653 6.66601C4.56315 6.61081 4.65497 6.53081 4.72425 6.43274L8.814 0.637489C8.8657 0.564223 8.94194 0.511909 9.0289 0.490032C9.11586 0.468154 9.20778 0.478161 9.288 0.518239L10.6485 1.19849C11.0314 1.38986 11.3372 1.70647 11.5153 2.09573C11.6933 2.48498 11.7329 2.92343 11.6273 3.33824L10.95 5.99999ZM5.25 7.94099V14.25H13.62L15.75 9.07799V7.49999H10.95C10.7215 7.49996 10.4961 7.44774 10.2909 7.34733C10.0857 7.24692 9.90617 7.10097 9.76596 6.9206C9.62575 6.74024 9.52859 6.53023 9.48189 6.30661C9.43519 6.08298 9.44019 5.85164 9.4965 5.63024L10.1737 2.96924C10.1949 2.88623 10.1871 2.79847 10.1515 2.72056C10.1159 2.64265 10.0546 2.57927 9.978 2.54099L9.48225 2.29349L5.94975 7.29749C5.76225 7.56299 5.52225 7.78049 5.25 7.94099V7.94099ZM3.75 8.24999H2.25V14.25H3.75V8.24999Z" fill="#4E9EFD"/>
</g>
<defs>
<clipPath id="clip0_1641_10543">
<rect width="18" height="18" fill="white"/>
</clipPath>
</defs>
</svg>
